<?xml version="1.0" encoding="utf-8"?>
<svg width="42" height="41" viewBox="0 0 42 41" fill="none" xmlns="http://www.w3.org/2000/svg">
    <path d="M22.652 0.199997C26.3853 0.199997 29.6853 1.03333 32.552 2.7C35.452 4.33333 37.6853 6.61667 39.252 9.55C40.852 12.4833 41.652 15.8 41.652 19.5C41.652 23.3 40.452 26.8167 38.052 30.05C35.6853 33.25 32.7353 35.8 29.202 37.7C25.6686 39.5667 22.302 40.5 19.102 40.5C17.5686 40.5 16.052 40.4167 14.552 40.25C12.052 40.0833 10.1353 40 8.80195 40H0.901953V37.2L5.60195 33.5V5.65L0.0519532 3.95L1.70195 0.699999H8.75195C11.8186 0.699999 14.8186 0.599999 17.752 0.399997C20.0186 0.266664 21.652 0.199997 22.652 0.199997ZM20.552 35.85C22.652 35.85 24.552 35.25 26.252 34.05C27.9853 32.85 29.3353 31.1833 30.302 29.05C31.302 26.9167 31.802 24.5167 31.802 21.85C31.802 18.65 31.3186 15.7667 30.352 13.2C29.4186 10.6 27.9686 8.53333 26.002 7C24.0686 5.43333 21.6686 4.65 18.802 4.65C17.302 4.65 15.9186 5.05 14.652 5.85V34.9C16.352 35.5333 18.302 35.85 20.502 35.85H20.552Z" fill="#2A49B9"/>
</svg>
